<svg id="delete" xmlns="http://www.w3.org/2000/svg" width="22.651" height="29.701" viewBox="0 0 22.651 29.701">
  <path id="Path_33" data-name="Path 33" d="M8.182,2.7A1.522,1.522,0,0,1,9.758,1.168h6.48A1.522,1.522,0,0,1,17.815,2.7V4.379h1.168V2.7A2.69,2.69,0,0,0,16.238,0H9.758A2.69,2.69,0,0,0,7.014,2.7V4.379H8.182Zm0,0" transform="translate(-1.672)" fill="#fff"/>
  <path id="Path_34" data-name="Path 34" d="M5.067,32.534H18.874a2.486,2.486,0,0,0,2.364-2.627V11.882H2.7V29.907a2.486,2.486,0,0,0,2.365,2.627ZM15.692,14.67a.584.584,0,1,1,1.168,0V28.462a.584.584,0,0,1-1.168,0Zm-4.306,0a.584.584,0,0,1,1.168,0V28.462a.584.584,0,0,1-1.168,0Zm-4.306,0a.584.584,0,1,1,1.168,0V28.462a.584.584,0,0,1-1.168,0Zm0,0" transform="translate(-0.644 -2.833)" fill="#fff"/>
  <path id="Path_35" data-name="Path 35" d="M1.46,9.435H21.192a1.46,1.46,0,0,0,0-2.919H1.46a1.46,1.46,0,0,0,0,2.919Zm0,0" transform="translate(0 -1.554)" fill="#fff"/>
</svg>
