<svg id="exit" xmlns="http://www.w3.org/2000/svg" width="21" height="21" viewBox="0 0 21 21">
  <path id="Path_29" data-name="Path 29" d="M9.885,21H4.922A4.927,4.927,0,0,1,0,16.078V4.922A4.927,4.927,0,0,1,4.922,0H9.885a4.927,4.927,0,0,1,4.922,4.922v.82a.82.82,0,0,1-1.641,0v-.82A3.285,3.285,0,0,0,9.885,1.641H4.922A3.285,3.285,0,0,0,1.641,4.922V16.078a3.285,3.285,0,0,0,3.281,3.281H9.885a3.285,3.285,0,0,0,3.281-3.281v-.82a.82.82,0,0,1,1.641,0v.82A4.927,4.927,0,0,1,9.885,21Z" fill="#fff"/>
  <path id="Path_30" data-name="Path 30" d="M21.258,17.641a.82.82,0,0,1-.579-1.4l1.9-1.894a.811.811,0,0,0,0-1.149l-1.9-1.862a.82.82,0,1,1,1.15-1.171l1.9,1.865,0,0a2.452,2.452,0,0,1,0,3.474l-1.9,1.893a.818.818,0,0,1-.579.239ZM21.217,13.7a.82.82,0,0,0-.82-.82H11.537a.82.82,0,0,0,0,1.641H20.4A.82.82,0,0,0,21.217,13.7Z" transform="translate(-3.457 -3.203)" fill="#fff"/>
</svg>
