<svg xmlns="http://www.w3.org/2000/svg" width="25" height="13.184" viewBox="0 0 25 13.184">
  <g id="eye" transform="translate(0 -5.908)">
    <g id="Group_21" data-name="Group 21">
      <g id="Group_20" data-name="Group 20">
        <path id="Path_37" data-name="Path 37" d="M24.813,12.011c-.223-.249-5.591-6.1-12.313-6.1S.41,11.763.187,12.011a.733.733,0,0,0,0,.977c.223.249,5.591,6.1,12.313,6.1s12.09-5.854,12.313-6.1A.733.733,0,0,0,24.813,12.011ZM12.5,17.627A5.127,5.127,0,1,1,17.627,12.5,5.133,5.133,0,0,1,12.5,17.627Z" fill="#fff"/>
      </g>
    </g>
    <g id="Group_23" data-name="Group 23">
      <g id="Group_22" data-name="Group 22">
        <path id="Path_38" data-name="Path 38" d="M13.232,11.035a2.19,2.19,0,0,1,.922-1.784A3.615,3.615,0,0,0,12.5,8.838a3.662,3.662,0,1,0,3.6,4.279A2.185,2.185,0,0,1,13.232,11.035Z" fill="#fff"/>
      </g>
    </g>
  </g>
</svg>
