<svg xmlns="http://www.w3.org/2000/svg" width="88" height="76.258" viewBox="0 0 88 76.258">
  <g id="book_1_" data-name="book(1)" transform="translate(0 -5.871)">
    <g id="Group_24" data-name="Group 24">
      <path id="Path_39" data-name="Path 39" d="M33.688,76.07V19.523a102.834,102.834,0,0,0-26.618-3.5H2.578A2.578,2.578,0,0,0,0,18.606V70.168a2.579,2.579,0,0,0,2.578,2.578H7.069A97.668,97.668,0,0,1,33.7,76.436C33.689,76.313,33.688,76.191,33.688,76.07Z" fill="#fff"/>
    </g>
    <g id="Group_25" data-name="Group 25">
      <path id="Path_40" data-name="Path 40" d="M85.422,16.028H80.931a102.833,102.833,0,0,0-26.618,3.5s0,56.789-.009,56.913a97.668,97.668,0,0,1,26.627-3.69h4.491A2.579,2.579,0,0,0,88,70.168V18.606a2.578,2.578,0,0,0-2.578-2.578Z" fill="#fff"/>
    </g>
    <g id="Group_26" data-name="Group 26">
      <path id="Path_41" data-name="Path 41" d="M44,82.129A5.091,5.091,0,0,1,38.844,77.9V21.183a5.258,5.258,0,0,0,10.313,0V77.9A5.091,5.091,0,0,1,44,82.129Z" fill="#fff"/>
    </g>
    <path id="Path_42" data-name="Path 42" d="M79.118,10.888A107.924,107.924,0,0,0,46.71,16.425,7.676,7.676,0,0,0,44,18a7.676,7.676,0,0,0-2.71-1.573A107.924,107.924,0,0,0,8.883,10.888l1.8-3.592a2.581,2.581,0,0,1,2.442-1.421A113.532,113.532,0,0,1,44,11.892,118.394,118.394,0,0,1,74.879,5.875,2.577,2.577,0,0,1,77.321,7.3Z" fill="#fff"/>
  </g>
</svg>
