<svg xmlns="http://www.w3.org/2000/svg" width="30.933" height="29.402" viewBox="0 0 30.933 29.402">
  <g id="home" transform="translate(0 -1.089)">
    <g id="Group_3" data-name="Group 3" transform="translate(0 1.089)">
      <g id="Group_2" data-name="Group 2">
        <path id="Path_4" data-name="Path 4" d="M30.414,14.152,16.535,1.506a1.579,1.579,0,0,0-2.137,0L.519,14.152a1.586,1.586,0,0,0,1.068,2.759H3.8V29.581a.91.91,0,0,0,.91.91h7.607a.91.91,0,0,0,.91-.91V21.888H17.7v7.693a.91.91,0,0,0,.91.91h7.607a.91.91,0,0,0,.91-.91V16.911h2.217a1.586,1.586,0,0,0,1.068-2.759Z" transform="translate(0 -1.089)" fill="#fff"/>
      </g>
    </g>
    <g id="Group_5" data-name="Group 5" transform="translate(20.782 2.905)">
      <g id="Group_4" data-name="Group 4">
        <path id="Path_5" data-name="Path 5" d="M35.669,3.672H29.56l7.019,6.382V4.582A.91.91,0,0,0,35.669,3.672Z" transform="translate(-29.56 -3.672)" fill="#fff"/>
      </g>
    </g>
  </g>
</svg>
